<svg width="285" height="626" viewBox="0 0 285 626" fill="none" xmlns="http://www.w3.org/2000/svg">
<path d="M150.308 586.24C147.819 596.382 133.405 596.401 130.89 586.265L91.774 428.641L189.013 428.514L150.308 586.24Z" fill="#FBC02D"/>
<path d="M99 428H184L164.863 502.826C158.379 528.182 122.227 527.79 116.294 502.299L99 428Z" fill="#F57F17"/>
<rect width="70" height="30" transform="matrix(-0.660498 -0.750828 -0.750828 0.660498 255.76 331.558)" fill="#F44336"/>
<path d="M284.134 473.641L283.267 408.647C283.23 405.886 280.962 403.677 278.201 403.714L253.203 404.048L254.137 474.042L284.134 473.641Z" fill="#F44336"/>
<path d="M283.174 407.107L255.674 331.641L231.674 349.641L255.09 417.656L283.174 407.107Z" fill="#F44336"/>
<rect x="28.3745" y="331.558" width="70" height="30" transform="rotate(-48.6621 28.3745 331.558)" fill="#F44336"/>
<path d="M0 473.641L0.867302 408.647C0.904148 405.886 3.17239 403.677 5.93357 403.714L30.9313 404.048L29.9973 474.042L0 473.641Z" fill="#F44336"/>
<path d="M0.96001 407.107L28.4601 331.641L52.4601 349.641L29.0443 417.656L0.96001 407.107Z" fill="#F44336"/>
<path d="M54.9415 163.493C53.8613 155.43 59.4057 147.975 67.4389 146.69L140.5 135L212.424 146.709C220.311 147.992 225.806 155.232 224.922 163.173L197 414H88.5L54.9415 163.493Z" fill="#FAFAFA"/>
<path d="M141.597 135.654C103.762 160.863 84.8449 173.468 75.5935 172.293C64.7137 170.911 56.0048 162.599 54.1167 151.796C52.5112 142.609 64.2193 123.125 87.6354 84.1548L90.0431 80.148L106.293 54.8842C118.368 36.1132 124.405 26.7276 132.128 23.8095C138.038 21.5762 144.575 21.6639 150.424 24.0547C158.066 27.1788 163.85 36.7227 175.416 55.8107L194.015 86.5037C216.023 122.822 227.027 140.981 226.251 149.214C225.066 161.771 214.712 171.479 202.104 171.854C193.839 172.1 176.425 159.952 141.597 135.654Z" fill="#F44336"/>
<rect x="82.5499" y="429.689" width="31" height="119" rx="9.5" transform="rotate(-90.0908 82.5499 429.689)" fill="#F44336" stroke="black"/>
<rect x="126.5" y="354.5" width="31" height="119" rx="9.5" fill="#F44336" stroke="black"/>
<ellipse cx="140" cy="221" rx="31" ry="30" fill="#6D4C41"/>
<ellipse cx="140" cy="221" rx="23" ry="22" fill="#3F51B5"/>
</svg>
